<mxfile host="Electron" agent="Mozilla/5.0 (Windows NT 10.0; Win64; x64) AppleWebKit/537.36 (KHTML, like Gecko) draw.io/28.2.5 Chrome/138.0.7204.251 Electron/37.6.1 Safari/537.36" version="28.2.5">
  <diagram name="Page-1" id="t1bRBC0SPdjS2erpBaGR">
    <mxGraphModel dx="908" dy="589" grid="1" gridSize="10" guides="1" tooltips="1" connect="1" arrows="1" fold="1" page="1" pageScale="1" pageWidth="1100" pageHeight="1700" math="0" shadow="0">
      <root>
        <mxCell id="0" />
        <mxCell id="1" parent="0" />
        <mxCell id="-NLSQ2YHB3VhESguHs_T-31" style="edgeStyle=orthogonalEdgeStyle;rounded=0;orthogonalLoop=1;jettySize=auto;html=1;exitX=0.5;exitY=1;exitDx=0;exitDy=0;entryX=0.5;entryY=0;entryDx=0;entryDy=0;" edge="1" parent="1" source="-NLSQ2YHB3VhESguHs_T-1" target="-NLSQ2YHB3VhESguHs_T-2">
          <mxGeometry relative="1" as="geometry" />
        </mxCell>
        <mxCell id="-NLSQ2YHB3VhESguHs_T-1" value="Bắt đầu chương trình" style="ellipse;whiteSpace=wrap;html=1;" vertex="1" parent="1">
          <mxGeometry x="320" y="40" width="120" height="80" as="geometry" />
        </mxCell>
        <mxCell id="-NLSQ2YHB3VhESguHs_T-32" style="edgeStyle=orthogonalEdgeStyle;rounded=0;orthogonalLoop=1;jettySize=auto;html=1;exitX=0.5;exitY=1;exitDx=0;exitDy=0;entryX=0.5;entryY=0;entryDx=0;entryDy=0;" edge="1" parent="1" source="-NLSQ2YHB3VhESguHs_T-2" target="-NLSQ2YHB3VhESguHs_T-3">
          <mxGeometry relative="1" as="geometry" />
        </mxCell>
        <mxCell id="-NLSQ2YHB3VhESguHs_T-2" value="Nhập số điểm" style="shape=parallelogram;perimeter=parallelogramPerimeter;whiteSpace=wrap;html=1;fixedSize=1;" vertex="1" parent="1">
          <mxGeometry x="320" y="160" width="120" height="80" as="geometry" />
        </mxCell>
        <mxCell id="-NLSQ2YHB3VhESguHs_T-6" style="edgeStyle=orthogonalEdgeStyle;rounded=0;orthogonalLoop=1;jettySize=auto;html=1;exitX=0;exitY=0.5;exitDx=0;exitDy=0;entryX=0.5;entryY=0;entryDx=0;entryDy=0;" edge="1" parent="1" source="-NLSQ2YHB3VhESguHs_T-3" target="-NLSQ2YHB3VhESguHs_T-4">
          <mxGeometry relative="1" as="geometry" />
        </mxCell>
        <mxCell id="-NLSQ2YHB3VhESguHs_T-8" style="edgeStyle=orthogonalEdgeStyle;rounded=0;orthogonalLoop=1;jettySize=auto;html=1;exitX=1;exitY=0.5;exitDx=0;exitDy=0;" edge="1" parent="1" source="-NLSQ2YHB3VhESguHs_T-3" target="-NLSQ2YHB3VhESguHs_T-5">
          <mxGeometry relative="1" as="geometry" />
        </mxCell>
        <mxCell id="-NLSQ2YHB3VhESguHs_T-3" value="Kiểm tra điểm &amp;lt;4?" style="rhombus;whiteSpace=wrap;html=1;" vertex="1" parent="1">
          <mxGeometry x="320" y="280" width="120" height="80" as="geometry" />
        </mxCell>
        <mxCell id="-NLSQ2YHB3VhESguHs_T-21" style="edgeStyle=orthogonalEdgeStyle;rounded=0;orthogonalLoop=1;jettySize=auto;html=1;exitX=0.5;exitY=1;exitDx=0;exitDy=0;entryX=0;entryY=0.5;entryDx=0;entryDy=0;" edge="1" parent="1" source="-NLSQ2YHB3VhESguHs_T-4" target="-NLSQ2YHB3VhESguHs_T-20">
          <mxGeometry relative="1" as="geometry">
            <mxPoint x="220" y="936.666748046875" as="targetPoint" />
          </mxGeometry>
        </mxCell>
        <mxCell id="-NLSQ2YHB3VhESguHs_T-4" value="Không đạt" style="shape=parallelogram;perimeter=parallelogramPerimeter;whiteSpace=wrap;html=1;fixedSize=1;" vertex="1" parent="1">
          <mxGeometry x="160" y="400" width="120" height="80" as="geometry" />
        </mxCell>
        <mxCell id="-NLSQ2YHB3VhESguHs_T-13" style="edgeStyle=orthogonalEdgeStyle;rounded=0;orthogonalLoop=1;jettySize=auto;html=1;exitX=0;exitY=0.5;exitDx=0;exitDy=0;entryX=0.5;entryY=0;entryDx=0;entryDy=0;" edge="1" parent="1" source="-NLSQ2YHB3VhESguHs_T-5" target="-NLSQ2YHB3VhESguHs_T-10">
          <mxGeometry relative="1" as="geometry" />
        </mxCell>
        <mxCell id="-NLSQ2YHB3VhESguHs_T-14" style="edgeStyle=orthogonalEdgeStyle;rounded=0;orthogonalLoop=1;jettySize=auto;html=1;exitX=1;exitY=0.5;exitDx=0;exitDy=0;entryX=0.5;entryY=0;entryDx=0;entryDy=0;" edge="1" parent="1" source="-NLSQ2YHB3VhESguHs_T-5" target="-NLSQ2YHB3VhESguHs_T-11">
          <mxGeometry relative="1" as="geometry" />
        </mxCell>
        <mxCell id="-NLSQ2YHB3VhESguHs_T-5" value="Kiểm tra điểm &amp;lt;=6?" style="rhombus;whiteSpace=wrap;html=1;" vertex="1" parent="1">
          <mxGeometry x="480" y="400" width="120" height="80" as="geometry" />
        </mxCell>
        <mxCell id="-NLSQ2YHB3VhESguHs_T-7" value="đúng&amp;nbsp;" style="text;html=1;align=center;verticalAlign=middle;whiteSpace=wrap;rounded=0;" vertex="1" parent="1">
          <mxGeometry x="210" y="290" width="60" height="30" as="geometry" />
        </mxCell>
        <mxCell id="-NLSQ2YHB3VhESguHs_T-9" value="sai" style="text;html=1;align=center;verticalAlign=middle;whiteSpace=wrap;rounded=0;" vertex="1" parent="1">
          <mxGeometry x="470" y="290" width="60" height="30" as="geometry" />
        </mxCell>
        <mxCell id="-NLSQ2YHB3VhESguHs_T-22" style="edgeStyle=orthogonalEdgeStyle;rounded=0;orthogonalLoop=1;jettySize=auto;html=1;exitX=0.5;exitY=1;exitDx=0;exitDy=0;entryX=0;entryY=0.5;entryDx=0;entryDy=0;" edge="1" parent="1" source="-NLSQ2YHB3VhESguHs_T-10" target="-NLSQ2YHB3VhESguHs_T-20">
          <mxGeometry relative="1" as="geometry" />
        </mxCell>
        <mxCell id="-NLSQ2YHB3VhESguHs_T-10" value="Trung bình" style="shape=parallelogram;perimeter=parallelogramPerimeter;whiteSpace=wrap;html=1;fixedSize=1;" vertex="1" parent="1">
          <mxGeometry x="320" y="520" width="120" height="80" as="geometry" />
        </mxCell>
        <mxCell id="-NLSQ2YHB3VhESguHs_T-29" style="edgeStyle=orthogonalEdgeStyle;rounded=0;orthogonalLoop=1;jettySize=auto;html=1;exitX=1;exitY=0.5;exitDx=0;exitDy=0;entryX=0.5;entryY=0;entryDx=0;entryDy=0;" edge="1" parent="1" source="-NLSQ2YHB3VhESguHs_T-11" target="-NLSQ2YHB3VhESguHs_T-17">
          <mxGeometry relative="1" as="geometry" />
        </mxCell>
        <mxCell id="-NLSQ2YHB3VhESguHs_T-30" style="edgeStyle=orthogonalEdgeStyle;rounded=0;orthogonalLoop=1;jettySize=auto;html=1;exitX=0;exitY=0.5;exitDx=0;exitDy=0;entryX=0.5;entryY=0;entryDx=0;entryDy=0;" edge="1" parent="1" source="-NLSQ2YHB3VhESguHs_T-11" target="-NLSQ2YHB3VhESguHs_T-16">
          <mxGeometry relative="1" as="geometry" />
        </mxCell>
        <mxCell id="-NLSQ2YHB3VhESguHs_T-11" value="Kiểm tra điểm &amp;lt;=8?" style="rhombus;whiteSpace=wrap;html=1;" vertex="1" parent="1">
          <mxGeometry x="640" y="520" width="120" height="80" as="geometry" />
        </mxCell>
        <mxCell id="-NLSQ2YHB3VhESguHs_T-12" value="đúng&amp;nbsp;" style="text;html=1;align=center;verticalAlign=middle;whiteSpace=wrap;rounded=0;" vertex="1" parent="1">
          <mxGeometry x="390" y="410" width="60" height="30" as="geometry" />
        </mxCell>
        <mxCell id="-NLSQ2YHB3VhESguHs_T-15" value="sai" style="text;html=1;align=center;verticalAlign=middle;whiteSpace=wrap;rounded=0;" vertex="1" parent="1">
          <mxGeometry x="640" y="410" width="60" height="30" as="geometry" />
        </mxCell>
        <mxCell id="-NLSQ2YHB3VhESguHs_T-23" style="edgeStyle=orthogonalEdgeStyle;rounded=0;orthogonalLoop=1;jettySize=auto;html=1;exitX=0.5;exitY=1;exitDx=0;exitDy=0;entryX=0.5;entryY=0;entryDx=0;entryDy=0;" edge="1" parent="1" source="-NLSQ2YHB3VhESguHs_T-16" target="-NLSQ2YHB3VhESguHs_T-20">
          <mxGeometry relative="1" as="geometry" />
        </mxCell>
        <mxCell id="-NLSQ2YHB3VhESguHs_T-16" value="Khá" style="shape=parallelogram;perimeter=parallelogramPerimeter;whiteSpace=wrap;html=1;fixedSize=1;" vertex="1" parent="1">
          <mxGeometry x="480" y="640" width="120" height="80" as="geometry" />
        </mxCell>
        <mxCell id="-NLSQ2YHB3VhESguHs_T-27" style="edgeStyle=orthogonalEdgeStyle;rounded=0;orthogonalLoop=1;jettySize=auto;html=1;exitX=0;exitY=0.5;exitDx=0;exitDy=0;entryX=0.5;entryY=0;entryDx=0;entryDy=0;" edge="1" parent="1" source="-NLSQ2YHB3VhESguHs_T-17" target="-NLSQ2YHB3VhESguHs_T-18">
          <mxGeometry relative="1" as="geometry" />
        </mxCell>
        <mxCell id="-NLSQ2YHB3VhESguHs_T-28" style="edgeStyle=orthogonalEdgeStyle;rounded=0;orthogonalLoop=1;jettySize=auto;html=1;exitX=1;exitY=0.5;exitDx=0;exitDy=0;entryX=0.5;entryY=0;entryDx=0;entryDy=0;" edge="1" parent="1" source="-NLSQ2YHB3VhESguHs_T-17" target="-NLSQ2YHB3VhESguHs_T-19">
          <mxGeometry relative="1" as="geometry" />
        </mxCell>
        <mxCell id="-NLSQ2YHB3VhESguHs_T-17" value="Kiểm tra điểm &amp;lt;=9?" style="rhombus;whiteSpace=wrap;html=1;" vertex="1" parent="1">
          <mxGeometry x="800" y="640" width="120" height="80" as="geometry" />
        </mxCell>
        <mxCell id="-NLSQ2YHB3VhESguHs_T-26" style="edgeStyle=orthogonalEdgeStyle;rounded=0;orthogonalLoop=1;jettySize=auto;html=1;exitX=0.75;exitY=1;exitDx=0;exitDy=0;entryX=1;entryY=0.5;entryDx=0;entryDy=0;" edge="1" parent="1" source="-NLSQ2YHB3VhESguHs_T-18" target="-NLSQ2YHB3VhESguHs_T-20">
          <mxGeometry relative="1" as="geometry" />
        </mxCell>
        <mxCell id="-NLSQ2YHB3VhESguHs_T-18" value="Giỏi&amp;nbsp;" style="shape=parallelogram;perimeter=parallelogramPerimeter;whiteSpace=wrap;html=1;fixedSize=1;" vertex="1" parent="1">
          <mxGeometry x="640" y="760" width="120" height="80" as="geometry" />
        </mxCell>
        <mxCell id="-NLSQ2YHB3VhESguHs_T-24" style="edgeStyle=orthogonalEdgeStyle;rounded=0;orthogonalLoop=1;jettySize=auto;html=1;exitX=0.5;exitY=1;exitDx=0;exitDy=0;entryX=1;entryY=0.5;entryDx=0;entryDy=0;" edge="1" parent="1" source="-NLSQ2YHB3VhESguHs_T-19" target="-NLSQ2YHB3VhESguHs_T-20">
          <mxGeometry relative="1" as="geometry" />
        </mxCell>
        <mxCell id="-NLSQ2YHB3VhESguHs_T-19" value="Xuất sắc&lt;div&gt;&lt;/div&gt;" style="shape=parallelogram;perimeter=parallelogramPerimeter;whiteSpace=wrap;html=1;fixedSize=1;" vertex="1" parent="1">
          <mxGeometry x="960" y="760" width="120" height="80" as="geometry" />
        </mxCell>
        <mxCell id="-NLSQ2YHB3VhESguHs_T-20" value="Kết thúc chương trình" style="ellipse;whiteSpace=wrap;html=1;" vertex="1" parent="1">
          <mxGeometry x="480" y="880" width="120" height="80" as="geometry" />
        </mxCell>
        <mxCell id="-NLSQ2YHB3VhESguHs_T-35" value="đúng" style="text;html=1;align=center;verticalAlign=middle;whiteSpace=wrap;rounded=0;" vertex="1" parent="1">
          <mxGeometry x="550" y="530" width="60" height="30" as="geometry" />
        </mxCell>
        <mxCell id="-NLSQ2YHB3VhESguHs_T-36" value="sai" style="text;html=1;align=center;verticalAlign=middle;whiteSpace=wrap;rounded=0;" vertex="1" parent="1">
          <mxGeometry x="780" y="530" width="60" height="30" as="geometry" />
        </mxCell>
        <mxCell id="-NLSQ2YHB3VhESguHs_T-37" value="đúng&amp;nbsp;" style="text;html=1;align=center;verticalAlign=middle;whiteSpace=wrap;rounded=0;" vertex="1" parent="1">
          <mxGeometry x="720" y="650" width="60" height="30" as="geometry" />
        </mxCell>
        <mxCell id="-NLSQ2YHB3VhESguHs_T-38" value="sai" style="text;html=1;align=center;verticalAlign=middle;whiteSpace=wrap;rounded=0;" vertex="1" parent="1">
          <mxGeometry x="940" y="650" width="60" height="30" as="geometry" />
        </mxCell>
      </root>
    </mxGraphModel>
  </diagram>
</mxfile>
